<svg width="72" height="72" viewBox="0 0 72 72" fill="none" xmlns="http://www.w3.org/2000/svg">
<path d="M26.314 16.8839C25.9121 15.7797 25.6923 14.5878 25.6923 13.3462C25.6923 7.63212 30.3244 3 36.0385 3C41.7525 3 46.3846 7.63212 46.3846 13.3462C46.3846 15.0199 45.9846 16.6065 45.2755 18.0095C46.2959 18.0801 47.2874 18.5398 48.0103 19.366C51.9379 23.8547 55.375 30.2548 55.375 37.6731C55.375 42.9766 53.5491 46.9066 51.0819 49.7383L55.7679 50.5601C57.6813 50.8957 59.0769 52.5574 59.0769 54.5V62C59.0769 63.0609 58.6555 64.0783 57.9053 64.8284C57.1552 65.5786 56.1378 66 55.0769 66L17 66C14.7909 66 13 64.2091 13 62V54.5C13 52.5597 14.3925 50.8992 16.3032 50.5612L20.5303 49.8134C18.0294 46.9764 16.1731 43.0244 16.1731 37.6731C16.1731 31.8853 18.416 26.8449 21.0466 22.9821C22.7001 20.5541 24.5721 18.4927 26.314 16.8839Z" fill="#34364C"/>
<path d="M38 37.1442H34C34 29.7994 36.2277 22.4669 41.1561 17.0997C41.9284 16.0485 42.3846 14.7506 42.3846 13.3462C42.3846 9.84126 39.5434 7 36.0385 7C32.5336 7 29.6923 9.84126 29.6923 13.3462C29.6923 15.0754 30.384 16.6431 31.5056 17.7877C27.5414 20.6138 20.1731 28.1889 20.1731 37.6731C20.1731 47.2443 27.6772 51.1192 31.6139 51.9147L17 54.5V62L55.0769 62V54.5L40.1165 51.8762C44.0977 50.9999 51.375 47.0985 51.375 37.6731C51.375 31.5015 48.5 26 45 22C41.1561 25 38 32 38 37.1442Z" fill="#F4F7FA"/>
</svg>
