<svg width="72" height="72" viewBox="0 0 72 72" fill="none" xmlns="http://www.w3.org/2000/svg">
<path d="M29.6899 0.506964C31.0065 0.358909 32.3111 0.872458 33.1735 1.87833L41.3344 11.3968C50.7064 13.7128 56.1365 20.7698 59.1398 29.5796C62.2345 38.6575 63 50.182 63 62C63 64.2091 61.2091 66 59 66H21.7049C19.5814 66 17.8279 64.3406 17.711 62.2202C17.6066 60.3281 18.042 57.0449 19.3686 53.6914L19.393 53.63C15.6257 55.6522 11.4448 55.1678 8.34113 52.958C4.56927 50.2725 2.47202 45.0154 4.86816 39.8238C6.59604 36.08 8.45832 34.0976 9.86712 32.5982C11.1831 31.1977 11.7315 30.5817 12.1194 29.0299C14.4717 19.6209 19.3109 14.2007 24.5079 11.7271C24.4327 10.6552 24.4938 9.62248 24.6253 8.68489C24.9526 6.35108 25.7673 4.19438 26.5978 2.61775C27.2153 1.44546 28.3732 0.655018 29.6899 0.506964Z" fill="#34364C"/>
<path fill-rule="evenodd" clip-rule="evenodd" d="M39.1707 15.0185L30.1368 4.48187C28.8291 6.96447 27.5614 11.3461 29.3841 14.5091C28.4994 14.5879 27.6539 14.7375 27 15C22.8279 16.6743 18.25 21 16 30C15.3485 32.606 14.1759 33.854 12.7822 35.3372C11.4676 36.7364 9.95622 38.3448 8.5 41.5C5.5 48 13.5963 54.5 19.5 48.5963C22.8191 45.2772 25.7204 43.9069 28.1562 42.7566C31.662 41.1008 34.2037 39.9004 35.6393 34C36.3224 36.7523 36.0492 43.2477 29.4918 47.211C22.9344 51.1743 21.5683 59.5229 21.7049 61.9999H59C59 38.4832 55.8865 18.1648 39.1707 15.0185Z" fill="#F4F7FA"/>
<circle cx="28" cy="27" r="3" fill="#34364C"/>
</svg>
