<svg width="72" height="72" viewBox="0 0 72 72" fill="none" xmlns="http://www.w3.org/2000/svg">
<path d="M23.1075 41.127C22.6303 41.7785 22.0608 42.4569 21.3971 43.1548C19.0545 45.6178 16.1816 47.6443 14.3274 48.7038L14.0154 48.8821C12.7691 49.5942 12 50.9196 12 52.355V62C12 64.2091 13.7909 66 16 66H55C57.2091 66 59 64.2091 59 62V52.355C59 50.9196 58.2309 49.5943 56.9846 48.8821L56.6727 48.7038C54.8185 47.6443 51.9455 45.6178 49.6029 43.1548C48.9392 42.4569 48.3697 41.7785 47.8925 41.127C49.648 40.7041 50.9524 39.1234 50.9524 37.2381V30.7269C50.9524 29.4272 50.3209 28.2085 49.2591 27.459L47.5602 26.2598C48.5405 24.3551 49.0952 22.1938 49.0952 19.9048C49.0952 12.2254 42.8699 6 35.1905 6C27.5111 6 21.2857 12.2254 21.2857 19.9048C21.2857 22.3225 21.9044 24.5972 22.9895 26.5776L21.7409 27.459C20.6791 28.2085 20.0476 29.4272 20.0476 30.7269V37.2381C20.0476 39.1234 21.352 40.7041 23.1075 41.127Z" fill="#F4F7FA"/>
<path d="M45.0952 19.9048C45.0952 22.7774 43.8723 25.3645 41.9187 27.1736L46.9524 30.7269V37.2381H42.0246C42.2622 40.2562 44.1987 43.2768 46.7045 45.9115C49.3638 48.7075 52.5633 50.9626 54.6881 52.1768L55 52.355V62H16V52.355L16.3119 52.1768C18.4367 50.9626 21.6362 48.7075 24.2955 45.9115C26.8013 43.2768 28.7378 40.2562 28.9754 37.2381H24.0476V30.7269L28.7357 27.4176C26.6234 25.6012 25.2857 22.9092 25.2857 19.9048C25.2857 14.4345 29.7202 10 35.1905 10C40.6607 10 45.0952 14.4345 45.0952 19.9048Z" fill="#34364C"/>
</svg>
