<svg width="72" height="72" viewBox="0 0 72 72" fill="none" xmlns="http://www.w3.org/2000/svg">
<path d="M18 10C18 10.9873 18.1588 11.9373 18.4523 12.8258L16.4779 13.752C14.841 12.0553 12.5438 11 10 11C5.02944 11 1 15.0294 1 20C1 24.4308 4.2018 28.1138 8.41791 28.8614L13.16 45.12C13.259 45.4594 13.4025 45.7842 13.5869 46.0858L16.32 50.5582L16.3032 50.5612C14.3925 50.8992 13 52.5597 13 54.5V62C13 64.2091 14.7909 66 17 66L55.0769 66C56.1378 66 57.1552 65.5786 57.9053 64.8284C58.6555 64.0783 59.0769 63.0609 59.0769 62V54.5C59.0769 52.5574 57.6813 50.8957 55.7679 50.5601L55.6875 50.546L58.4131 46.0858C58.5975 45.7842 58.741 45.4594 58.84 45.12L63.5821 28.8614C67.7982 28.1138 71 24.4308 71 20C71 15.0294 66.9706 11 62 11C59.453 11 57.1532 12.058 55.5159 13.7584L53.545 12.8339C53.8402 11.9431 54 10.9903 54 10C54 5.02944 49.9706 1 45 1C40.0294 1 36 5.02944 36 10C36 5.02944 31.9706 1 27 1C22.0294 1 18 5.02944 18 10Z" fill="#34364C"/>
<path d="M28.7948 14.6682C30.6696 13.947 32 12.1288 32 10C32 7.23858 29.7614 5 27 5C24.2386 5 22 7.23858 22 10C22 12.5519 23.9117 14.6572 26.3811 14.9621L24.1513 33L13.4022 23.6641C14.3851 22.751 15 21.4473 15 20C15 17.2386 12.7614 15 10 15C7.23858 15 5 17.2386 5 20C5 22.7614 7.23858 25 10 25C10.4861 25 10.956 24.9306 11.4004 24.8013L17 44L22.7906 53.4756L17 54.5V62L55.0769 62V54.5L49.2119 53.4714L55 44L60.5996 24.8013C61.044 24.9306 61.5139 25 62 25C64.7614 25 67 22.7614 67 20C67 17.2386 64.7614 15 62 15C59.2386 15 57 17.2386 57 20C57 21.4473 57.6149 22.751 58.5978 23.6641L47.8487 33L45.6189 14.9621C48.0883 14.6572 50 12.5519 50 10C50 7.23858 47.7614 5 45 5C42.2386 5 40 7.23858 40 10C40 12.1288 41.3304 13.947 43.2052 14.6682L36 31L28.7948 14.6682Z" fill="#F4F7FA"/>
</svg>
